# xmcd
#
# Track frame offsets:
#	150
#	22050
#	35074
#	51503
#	65736
#	86405
#	107501
#	121023
#	139347
#	155603
#	169060
#	187553
#	204208
#	223561
#
# Disc length: 3182 seconds
#
# Revision: 1
# Processed by: cddbd v1.5.1PL2 Copyright (c) Steve Scherf et al.
# Submitted via: audiograbber 1.83.01
#
DISCID=c00c6c0e
DTITLE=Sampler - Echt Kultig Powerparty CD 3
DYEAR=1900
DGENRE=soul
TTITLE0=SUGER HILL GANG - RAPPER'S DELIGHT
TTITLE1=TOM JONES - SHE'S A LADY
TTITLE2=ARETHA FRANKLIN - THINK
TTITLE3=ERUPTION - I CAN'T STAND THE RAIN
TTITLE4=BLACK BOX - RIDE ON TIME
TTITLE5=INDEEP - LAST NIGHT A DJ SAVED MY LIFE
TTITLE6=AMII STEWARD - KNOCK ON WOOD
TTITLE7=MICHAEL ZAGER BAND - LET'S ALL CHANT
TTITLE8=OTTAWAN - D I S C O 
TTITLE9=BELLE EPOQUE - MISS BROADWAY
TTITLE10=ANITA WARD - RING MY BELL
TTITLE11=HOT CHOCOLATE - NEVER PRETEND
TTITLE12=GRANDMASTER FLASH - IT'S NASTY
TTITLE13=USER  - ZUGABE
EXTD=
EXTT0=
EXTT1=
EXTT2=
EXTT3=
EXTT4=
EXTT5=
EXTT6=
EXTT7=
EXTT8=
EXTT9=
EXTT10=
EXTT11=
EXTT12=
EXTT13=
PLAYORDER=
